<svg width="80" height="80" viewBox="0 0 80 80" fill="none" xmlns="http://www.w3.org/2000/svg">
<path d="M0 40C0 17.9086 17.9086 0 40 0C62.0914 0 80 17.9086 80 40C80 62.0914 62.0914 80 40 80C17.9086 80 0 62.0914 0 40Z" fill="white"/>
<path d="M40.0001 29.3692C43.2549 29.3692 45.4504 30.7751 46.7023 31.95L51.5941 27.1737C48.5897 24.3811 44.6801 22.667 40.0001 22.667C33.2208 22.667 27.366 26.5574 24.5156 32.2196L30.1201 36.5722C31.526 32.3929 35.4164 29.3692 40.0001 29.3692Z" fill="#EA4335"/>
<path d="M56.64 40.3855C56.64 38.9603 56.5244 37.9203 56.2741 36.8418H40V43.2744H49.5526C49.36 44.8729 48.32 47.2803 46.0089 48.8981L51.4785 53.1351C54.7526 50.1114 56.64 45.6625 56.64 40.3855Z" fill="#4285F4"/>
<path d="M30.1386 43.4286C29.7727 42.3501 29.5608 41.1945 29.5608 40.0005C29.5608 38.8064 29.7727 37.6508 30.1193 36.5723L24.5149 32.2197C23.3401 34.5694 22.666 37.2079 22.666 40.0005C22.666 42.7931 23.3401 45.4316 24.5149 47.7812L30.1386 43.4286Z" fill="#FBBC05"/>
<path d="M39.9984 57.3339C44.6784 57.3339 48.6073 55.7932 51.4769 53.1354L46.0073 48.8983C44.5436 49.9191 42.5791 50.6317 39.9984 50.6317C35.4147 50.6317 31.5243 47.608 30.1376 43.4287L24.5332 47.7813C27.3836 53.4435 33.2191 57.3339 39.9984 57.3339Z" fill="#34A853"/>
</svg>
